Coordinates
version=1
nRows=9
nColumns=24
inDegrees=yes

Units are S.I. units (second, meters, Newtons, ...)
Angles are in degrees.

endheader
time	pelvis_tilt	pelvis_list	pelvis_rotation	pelvis_tx	pelvis_ty	pelvis_tz	hip_flexion_r	hip_adduction_r	hip_rotation_r	knee_angle_r	ankle_angle_r	subtalar_angle_r	mtp_angle_r	hip_flexion_l	hip_adduction_l	hip_rotation_l	knee_angle_l	ankle_angle_l	subtalar_angle_l	mtp_angle_l	lumbar_extension	lumbar_bending	lumbar_rotation
      1.37883333	      2.46612003	      8.71516098	     -3.84086096	      0.28519051	      1.02307178	      0.23353903	     12.04452023	     -8.79673390	      2.08719615	    -66.63334947	      5.22655429	    -17.33301257	     -7.02622889	      5.91143479	     12.93142972	      0.00832422	    -10.21028239	     -0.74830181	    -16.98170099	      2.69085540	     -3.79843525	    -10.89700123	      5.83611130
      1.38300000	      2.43304218	      8.59157871	     -3.73302305	      0.29002594	      1.02377098	      0.23338283	     12.53405524	     -8.57560510	      2.10146633	    -66.19076257	      5.44579795	    -17.20700714	     -7.07315505	      5.45591094	     12.83343744	      0.17228650	     -9.90220901	     -0.70138129	    -16.94918533	      2.64409625	     -3.82133706	    -10.77887262	      5.69152381
      1.38716667	      2.41859266	      8.50468322	     -3.62071629	      0.29484382	      1.02441800	      0.23318577	     13.00533253	     -8.41754066	      2.09667362	    -65.72394703	      5.67638924	    -16.98795619	     -7.15440627	      4.96449106	     12.78476996	      0.40844270	     -9.55502685	     -0.63456481	    -17.02184170	      2.55193893	     -3.86055677	    -10.69583618	      5.37363772
      1.39133333	      2.41287062	      8.40754930	     -3.50871038	      0.29966302	      1.02506516	      0.23301875	     13.44726011	     -8.24522670	      2.09325057	    -65.19445545	      5.89179128	    -16.79798232	     -7.23185280	      4.46800253	     12.71843794	      0.61924826	     -9.21509274	     -0.59607186	    -17.06946504	      2.44754734	     -3.90491857	    -10.61041671	      5.12592750
      1.39550000	      2.36607262	      8.29084257	     -3.39502051	      0.30445896	      1.02561951	      0.23286756	     13.92260705	     -8.04156834	      2.10251532	    -64.61633260	      6.07475190	    -16.62950767	     -7.25789553	      4.03629933	     12.61921357	      0.77527393	     -8.91390451	     -0.54059826	    -17.02675169	      2.40210653	     -3.91176855	    -10.49214356	      4.98481795
      1.39966667	      2.38737078	      8.20801473	     -3.27844571	      0.30924773	      1.02621250	      0.23268569	     14.31772180	     -7.90318695	      2.08120425	    -64.00762796	      6.28190995	    -16.39716412	     -7.30538624	      3.50992222	     12.56823447	      1.01245534	     -8.56634243	     -0.47655354	    -17.09130941	      2.30594755	     -3.99758156	    -10.41490534	      4.64806147
      1.40383333	      2.34861180	      8.10081662	     -3.16015139	      0.31403529	      1.02670518	      0.23254096	     14.75940359	     -7.72061759	      2.08080527	    -63.33933338	      6.44784987	    -16.22068365	     -7.32273546	      3.07290267	     12.47521802	      1.17368697	     -8.26688690	     -0.42698573	    -17.06297056	      2.25734199	     -4.00596326	    -10.30979892	      4.49428678
      1.40800000	      2.33662766	      8.03325738	     -3.03923635	      0.31879460	      1.02713870	      0.23236129	     15.17808963	     -7.60446643	      2.06007168	    -62.66293007	      6.63775998	    -15.99159744	     -7.35058029	      2.59476535	     12.43372700	      1.40919275	     -7.93565349	     -0.35646379	    -17.13858890	      2.16361639	     -4.05459390	    -10.24753973	      4.15668276
      1.41216667	      2.32047791	      7.95036712	     -2.92035620	      0.32354293	      1.02755516	      0.23221510	     15.58167765	     -7.46314595	      2.05131263	    -61.92899928	      6.79689770	    -15.81808419	     -7.37570401	      2.12898891	     12.36797651	      1.61958222	     -7.61623690	     -0.31241163	    -17.17813188	      2.05695794	     -4.10235924	    -10.17036878	      3.89765552
